<svg xmlns="http://www.w3.org/2000/svg" xmlns:xlink="http://www.w3.org/1999/xlink" id="Layer_1" width="512" height="512" x="0" style="enable-background:new 0 0 512 512" y="0" version="1.1" viewBox="0 0 512 512" xml:space="preserve"><style type="text/css">.st0{fill:#010101}</style><g><g><rect width="304" height="32" y="81" class="st0"/><rect width="80" height="32" x="432" y="81" class="st0"/><rect width="80" height="32" y="240" class="st0"/><rect width="304" height="32" x="208" y="240" class="st0"/><rect width="304" height="32" y="402" class="st0"/><rect width="80" height="32" x="432" y="402" class="st0"/></g><path d="M192,312.2c0,22-21.4,39.8-47.8,39.8h-0.4c-26.4,0-47.8-17.8-47.8-39.8V199.8c0-22,21.4-39.8,47.8-39.8h0.4 c26.4,0,47.8,17.8,47.8,39.8V312.2z" class="st0"/><path d="M416,152.2c0,22-21.4,39.8-47.8,39.8h-0.4c-26.4,0-47.8-17.8-47.8-39.8V39.8c0-22,21.4-39.8,47.8-39.8h0.4 C394.6,0,416,17.8,416,39.8V152.2z" class="st0"/><path d="M416,472.2c0,22-21.4,39.8-47.8,39.8h-0.4c-26.4,0-47.8-17.8-47.8-39.8V359.8c0-22,21.4-39.8,47.8-39.8h0.4 c26.4,0,47.8,17.8,47.8,39.8V472.2z" class="st0"/></g></svg>