<svg xmlns="http://www.w3.org/2000/svg" xmlns:xlink="http://www.w3.org/1999/xlink" id="Layer_1" width="512" height="512" x="0" style="enable-background:new 0 0 512 512" y="0" version="1.1" viewBox="0 0 512 512" xml:space="preserve"><style type="text/css">.st0{fill:#010101}</style><path d="M416,160C416,71.6,344.4,0,256,0C167.6,0,96,71.6,96,160c0,19.9,3.7,39,10.3,56.6l0,0c0.1,0.3,0.3,0.7,0.4,1	c0.2,0.6,0.5,1.3,0.7,1.9C174.4,390.5,255.9,512,255.9,512h0.1c0,0,81.6-121.5,148.6-292.7c0.2-0.5,0.4-1,0.6-1.6	c0.1-0.4,0.3-0.7,0.4-1.1l0,0C412.3,199.1,416,180,416,160z M256,192c-26.5,0-48-21.5-48-48s21.5-48,48-48s48,21.5,48,48	S282.5,192,256,192z" class="st0"/></svg>