<svg xmlns="http://www.w3.org/2000/svg" xmlns:xlink="http://www.w3.org/1999/xlink" id="Layer_1" width="512" height="512" x="0" style="enable-background:new 0 0 512 512" y="0" version="1.1" viewBox="0 0 512 512" xml:space="preserve"><style type="text/css">.st0{fill:#010101}</style><g><rect width="320" height="96" x="96" y="32" class="st0"/><path d="M512,219c-0.3-32.6-26.8-59-59.5-59h-393C26.8,160,0.3,186.4,0,219h0v165h96v96h320v-96h96L512,219L512,219z M352,416H160V288h192V416z M416,248c-13.3,0-24-10.7-24-24s10.7-24,24-24s24,10.7,24,24S429.3,248,416,248z" class="st0"/></g></svg>