<svg xmlns="http://www.w3.org/2000/svg" xmlns:xlink="http://www.w3.org/1999/xlink" id="Layer_1" width="512" height="512" x="0" style="enable-background:new 0 0 512 512" y="0" version="1.1" viewBox="0 0 512 512" xml:space="preserve"><style type="text/css">.st0{fill:#010101}</style><g><path d="M422,16H10C4.5,16,0,20.5,0,26v268c0,5.5,4.5,10,10,10h70v112l112-112h230c5.5,0,10-4.5,10-10V26 C432,20.5,427.5,16,422,16z" class="st0"/><path d="M502,96h-38v207c0,20-10.5,33-33,33H208l-48,48h160l112,112V384h70c5.5,0,10-4.5,10-10V106 C512,100.5,507.5,96,502,96z" class="st0"/></g></svg>