<svg xmlns="http://www.w3.org/2000/svg" xmlns:xlink="http://www.w3.org/1999/xlink" id="Layer_1" width="512" height="512" x="0" style="enable-background:new 0 0 512 512" y="0" version="1.1" viewBox="0 0 512 512" xml:space="preserve"><style type="text/css">.st0{fill:#010101}</style><g><path d="M258.3,274.2c-22.2,12.6-47.8,19.8-75.1,19.8c-27.3,0-53-7.2-75.1-19.8C49.3,292.2,13.3,331.8,0,384h366.5 C353.2,331.8,317.2,292.1,258.3,274.2z" class="st0"/><path d="M183.2,264c72.9,0,132-59.1,132-132c0-72.9-59.1-132-132-132c-72.9,0-132,59.1-132,132 C51.2,204.9,110.3,264,183.2,264z M275.5,168c-14.4,37-50.3,63-92.3,63s-77.9-26-92.3-63H275.5z" class="st0"/><polygon points="512 400 432 400 432 320 400 320 400 400 320 400 320 432 400 432 400 512 432 512 432 432 512 432" class="st0"/></g></svg>