<svg xmlns="http://www.w3.org/2000/svg" xmlns:xlink="http://www.w3.org/1999/xlink" id="Layer_1" width="512" height="512" x="0" style="enable-background:new 0 0 512 512" y="0" version="1.1" viewBox="0 0 512 512" xml:space="preserve"><style type="text/css">.st0{fill:#010101}</style><g><circle cx="256" cy="256" r="96" class="st0"/><path d="M512,240h-64.7C439.6,146.7,365.3,72.4,272,64.7V0h-32v64.7C146.7,72.4,72.4,146.7,64.7,240H0v32h64.7 c7.7,93.3,82.1,167.6,175.3,175.3V512h32v-64.7c93.3-7.7,167.6-82.1,175.3-175.3H512V240z M256,399c-79,0-143-64-143-143 s64-143,143-143s143,64,143,143S335,399,256,399z" class="st0"/></g></svg>