<svg xmlns="http://www.w3.org/2000/svg" xmlns:xlink="http://www.w3.org/1999/xlink" id="Layer_1" width="512" height="512" x="0" style="enable-background:new 0 0 512 512" y="0" version="1.1" viewBox="0 0 512 512" xml:space="preserve"><style type="text/css">.st0{fill:#010101}</style><path d="M454.4,256l52-53.2l-73.5-29.2l24.9-75.1l-78.9,5.9l-10.6-78.4l-68.3,39.9L256,0l-43.9,65.9l-68.3-39.9	l-10.6,78.4l-78.9-5.9l24.9,75.1L5.6,202.8l52,53.2l-52,53.2l73.5,29.2l-24.9,75.1l78.9-5.9l10.6,78.4l68.3-39.9L256,512l43.9-65.8	l68.3,39.9l10.6-78.4l78.9,5.9l-24.9-75.1l73.5-29.2L454.4,256z M256,416V96c88,0,160,71.6,160,160S344,416,256,416z" class="st0"/></svg>