<svg xmlns="http://www.w3.org/2000/svg" xmlns:xlink="http://www.w3.org/1999/xlink" id="Layer_1" width="512" height="512" x="0" style="enable-background:new 0 0 512 512" y="0" version="1.1" viewBox="0 0 512 512" xml:space="preserve"><style type="text/css">.st0{fill:#010101}</style><g><path d="M356.2,365.6C326.6,382.4,292.4,392,256,392c-36.4,0-70.6-9.6-100.1-26.4C77.5,389.5,29.4,443,11.7,512h488.5 C482.6,442.9,434.6,389.5,356.2,365.6z" class="st0"/><g><path d="M256,0C158.8,0,80,78.8,80,176s78.8,176,176,176s176-78.8,176-176S353.2,0,256,0z M256,308 c-56,0-103.8-34.8-123-84h246C359.8,273.2,312,308,256,308z" class="st0"/></g></g></svg>