<svg xmlns="http://www.w3.org/2000/svg" xmlns:xlink="http://www.w3.org/1999/xlink" id="Layer_1" width="512" height="512" x="0" style="enable-background:new 0 0 512 512" y="0" version="1.1" viewBox="0 0 512 512" xml:space="preserve"><style type="text/css">.st0{fill:#010101}</style><g><path d="M160,86c0,5.5-4.5,10-10,10H74c-5.5,0-10-4.5-10-10V10c0-5.5,4.5-10,10-10h76c5.5,0,10,4.5,10,10V86z" class="st0"/><path d="M307,86c0,5.5-4.5,10-10,10h-76c-5.5,0-10-4.5-10-10V10c0-5.5,4.5-10,10-10h76c5.5,0,10,4.5,10,10V86z" class="st0"/><path d="M448,86c0,5.5-4.5,10-10,10h-76c-5.5,0-10-4.5-10-10V10c0-5.5,4.5-10,10-10h76c5.5,0,10,4.5,10,10V86z" class="st0"/><path d="M160,214c0,5.5-4.5,10-10,10H74c-5.5,0-10-4.5-10-10v-76c0-5.5,4.5-10,10-10h76c5.5,0,10,4.5,10,10V214z" class="st0"/><path d="M307,214c0,5.5-4.5,10-10,10h-76c-5.5,0-10-4.5-10-10v-76c0-5.5,4.5-10,10-10h76c5.5,0,10,4.5,10,10V214z" class="st0"/><path d="M448,214c0,5.5-4.5,10-10,10h-76c-5.5,0-10-4.5-10-10v-76c0-5.5,4.5-10,10-10h76c5.5,0,10,4.5,10,10V214z" class="st0"/><path d="M160,342c0,5.5-4.5,10-10,10H74c-5.5,0-10-4.5-10-10v-76c0-5.5,4.5-10,10-10h76c5.5,0,10,4.5,10,10V342z" class="st0"/><path d="M307,342c0,5.5-4.5,10-10,10h-76c-5.5,0-10-4.5-10-10v-76c0-5.5,4.5-10,10-10h76c5.5,0,10,4.5,10,10V342z" class="st0"/><path d="M307,470c0,5.5-4.5,10-10,10h-76c-5.5,0-10-4.5-10-10v-76c0-5.5,4.5-10,10-10h76c5.5,0,10,4.5,10,10V470z" class="st0"/><path d="M448,342c0,5.5-4.5,10-10,10h-76c-5.5,0-10-4.5-10-10v-76c0-5.5,4.5-10,10-10h76c5.5,0,10,4.5,10,10V342z" class="st0"/></g></svg>