<svg xmlns="http://www.w3.org/2000/svg" xmlns:xlink="http://www.w3.org/1999/xlink" id="Layer_1" width="512" height="512" x="0" style="enable-background:new 0 0 512 512" y="0" version="1.1" viewBox="0 0 512 512" xml:space="preserve"><style type="text/css">.st0{fill:#010101}</style><g><path d="M256,32C132.3,32,32,132.3,32,256s100.3,224,224,224s224-100.3,224-224S379.7,32,256,32z M391.8,391.8 C355.5,428,307.3,448,256,448s-99.5-20-135.8-56.2C84,355.5,64,307.3,64,256s20-99.5,56.2-135.8C156.5,84,204.7,64,256,64 s99.5,20,135.8,56.2C428,156.5,448,204.7,448,256S428,355.5,391.8,391.8z" class="st0"/><polygon points="224 272 240 96 264 96 272 256 352 352 336 368" class="st0"/></g></svg>