<svg xmlns="http://www.w3.org/2000/svg" xmlns:xlink="http://www.w3.org/1999/xlink" id="Layer_1" width="512" height="512" x="0" style="enable-background:new 0 0 512 512" y="0" version="1.1" viewBox="0 0 512 512" xml:space="preserve"><style type="text/css">.st0{fill:#010101}</style><path d="M416,352c-22.1,0-42.1,9-56.6,23.4L174.3,272.6c1.1-5.4,1.7-10.9,1.7-16.6c0-5.7-0.6-11.2-1.7-16.6l185.2-102.8	C373.9,151,393.9,160,416,160c44.2,0,80-35.8,80-80S460.2,0,416,0s-80,35.8-80,80c0,4.8,0.4,9.4,1.2,14L150.7,197.6	C136.3,184.2,117.1,176,96,176c-44.2,0-80,35.8-80,80s35.8,80,80,80c21.1,0,40.3-8.2,54.7-21.6L337.2,418c-0.8,4.5-1.2,9.2-1.2,14	c0,44.2,35.8,80,80,80s80-35.8,80-80S460.2,352,416,352z" class="st0"/></svg>