<svg xmlns="http://www.w3.org/2000/svg" xmlns:xlink="http://www.w3.org/1999/xlink" id="Layer_1" width="512" height="512" x="0" style="enable-background:new 0 0 512 512" y="0" version="1.1" viewBox="0 0 512 512" xml:space="preserve"><style type="text/css">.st0{fill:#010101}</style><g><polygon points="0 0 176 112 176 496 0 352" class="st0"/><polygon points="512 0 336 112 336 496 512 352" class="st0"/><rect width="96" height="384" x="208" y="128" class="st0"/><path d="M426,6c-17,0-54.3-1.3-106,26s-64,44.3-64,44.3s-12.3-17-64-44.3S102.7,6,85.7,6s-38,2-38,2l160.2,96H256h47.8 L464,8C464,8,443,6,426,6z" class="st0"/></g></svg>