<svg xmlns="http://www.w3.org/2000/svg" xmlns:xlink="http://www.w3.org/1999/xlink" id="Layer_1" width="512" height="512" x="0" style="enable-background:new 0 0 512 512" y="0" version="1.1" viewBox="0 0 512 512" xml:space="preserve"><style type="text/css">.st0{fill:#010101}</style><g><path d="M240,0L240,0C116,0.3,16.5,100.4,16.5,224c0,123.6,99.5,223.7,223.5,224v64c141,0,256-114.6,256-256 S381,0,240,0z M224,202v60v26c0,26.5-21.5,48-48,48v-32c8.8,0,16-7.2,16-16v-16h-70c-5.5,0-10-4.5-10-10V154c0-5.5,4.5-10,10-10h92 c5.5,0,10,4.5,10,10V202z M400,202v60v26c0,26.5-21.5,48-48,48v-32c8.8,0,16-7.2,16-16v-16h-70c-5.5,0-10-4.5-10-10V154 c0-5.5,4.5-10,10-10h92c5.5,0,10,4.5,10,10V202z" class="st0"/></g></svg>