<svg xmlns="http://www.w3.org/2000/svg" xmlns:xlink="http://www.w3.org/1999/xlink" id="Layer_1" width="512" height="512" x="0" style="enable-background:new 0 0 512 512" y="0" version="1.1" viewBox="0 0 512 512" xml:space="preserve"><g><path d="M64,272c0,5.4,0.2,10.7,0.6,16c1.3,17.1,4.7,33.7,9.9,49.4c7.9,23.8,19.9,45.7,35.3,64.8C147.9,449.6,206.4,480,272,480 c114.9,0,208-93.1,208-208c0-65.6-30.4-124.1-77.8-162.2c-19.1-15.4-41-27.4-64.8-35.3c-15.7-5.2-32.3-8.6-49.4-9.9 c-5.3-0.4-10.6-0.6-16-0.6v208H64z"/><path d="M32,240c0,5.4,0.2,10.7,0.6,16H240h16v-16V32.6c-5.3-0.4-10.6-0.6-16-0.6C125.1,32,32,125.1,32,240z"/></g></svg>