<svg xmlns="http://www.w3.org/2000/svg" xmlns:xlink="http://www.w3.org/1999/xlink" id="Layer_1" width="512" height="512" x="0" style="enable-background:new 0 0 512 512" y="0" version="1.1" viewBox="0 0 512 512" xml:space="preserve"><path d="M421.9,199.3c-16.7-15-39-23.3-62.6-23.3c-23.6,0-45.9,8.3-62.6,23.3l-31.6,28.5l22.4,20.2l31.1-28	c10.8-9.7,25.3-15.1,40.7-15.1c15.4,0,29.9,5.4,40.7,15.1c10.7,9.6,16.6,22.4,16.6,36.1c0,13.6-5.9,26.4-16.6,36	c-10.8,9.7-25.3,15.1-40.7,15.1c-15.4,0-29.9-5.4-40.7-15.1l-103.3-92.7c-16.7-15-39-23.3-62.6-23.3c-23.6,0-45.9,8.3-62.6,23.3	C73.3,214.4,64,234.5,64,256c0,21.5,9.3,41.6,26.1,56.7c16.7,15,39,23.3,62.6,23.3c23.6,0,45.9-8.3,62.6-23.3l31.6-28.4l-22.4-20.2	l-31,27.9c-10.8,9.7-25.3,15.1-40.7,15.1s-29.9-5.4-40.7-15.1c-10.7-9.6-16.6-22.4-16.6-36c0-13.6,5.9-26.4,16.6-36.1	c10.8-9.7,25.3-15.1,40.7-15.1c15.4,0,29.9,5.4,40.7,15.1l103.3,92.7c16.7,15,39,23.3,62.6,23.3c23.6,0,45.9-8.3,62.6-23.3	c16.8-15.1,26.1-35.2,26.1-56.7C448,234.5,438.7,214.4,421.9,199.3z"/></svg>