<svg xmlns="http://www.w3.org/2000/svg" xmlns:xlink="http://www.w3.org/1999/xlink" id="Layer_1" width="512" height="512" x="0" style="enable-background:new 0 0 512 512" y="0" version="1.1" viewBox="0 0 512 512" xml:space="preserve"><g><path d="M256,304c-8.8,0-16,7.2-16,16s7.2,16,16,16s16-7.2,16-16S264.8,304,256,304z"/><path d="M360,224v-72c0-57.4-46.6-104-104-104c-57.5,0-104,46.6-104,104v72H96v240h320V224H360z M264,351v41c0,4.4-3.6,8-8,8 s-8-3.6-8-8v-41c-13.8-3.6-24-16.1-24-31c0-17.7,14.3-32,32-32s32,14.3,32,32C288,334.9,277.8,347.4,264,351z M344,224H168v-72 c0-48.5,39.5-88,88-88c48.5,0,88,39.5,88,88V224z"/></g></svg>