<svg xmlns="http://www.w3.org/2000/svg" xmlns:xlink="http://www.w3.org/1999/xlink" id="Layer_1" width="512" height="512" x="0" style="enable-background:new 0 0 512 512" y="0" version="1.1" viewBox="0 0 512 512" xml:space="preserve"><g><path d="M256,32c-74,0-134.2,58.7-134.2,132.7c0,16.4,3.5,34.3,9.8,50.4l-0.1,0l0.6,1.2c0.5,1.1,1,2.2,1.5,3.3L256,480l121.8-259.1 l0.6-1.2c0.5-1.1,1.1-2.2,1.6-3.4l0.4-1.1c6.5-16.1,9.8-33.1,9.8-50.3C390.2,90.7,330,32,256,32z M256,206.9 c-25.9,0-46.9-21-46.9-46.9c0-25.9,21-46.9,46.9-46.9c25.9,0,46.9,21,46.9,46.9C302.9,185.9,281.9,206.9,256,206.9z"/></g></svg>