<svg xmlns="http://www.w3.org/2000/svg" xmlns:xlink="http://www.w3.org/1999/xlink" id="Layer_1" width="512" height="512" x="0" style="enable-background:new 0 0 512 512" y="0" version="1.1" viewBox="0 0 512 512" xml:space="preserve"><g id="PL_x5F_Cart_1_"><path d="M441,416c0,13.8-11.2,25-25,25s-25-11.2-25-25s11.2-25,25-25S441,402.2,441,416z"/><path d="M153,416c0,13.8-11.2,25-25,25s-25-11.2-25-25s11.2-25,25-25S153,402.2,153,416z"/><path d="M127.9,96l-11.1-32H64v17h41.7l57.5,213.3c-32.4,11.3-59.9,37.9-65.3,73.1C96,379.1,96,384,96,384h352v-16.7H115.3 c4.7-31.6,38.8-58.1,74.1-62.5s243.3-34.2,243.3-34.2L448,96H127.9z"/></g></svg>