<svg xmlns="http://www.w3.org/2000/svg" xmlns:xlink="http://www.w3.org/1999/xlink" id="Layer_1" width="512" height="512" x="0" style="enable-background:new 0 0 512 512" y="0" version="1.1" viewBox="0 0 512 512" xml:space="preserve"><g id="PL_x5F_Film"><rect width="32" height="34.9" x="64" y="64"/><path d="M384,64H128v177.3h256V64L384,64z"/><path d="M384,270.4H128V448h256V270.4L384,270.4z"/><rect width="32" height="34.9" x="64" y="133.8"/><rect width="32" height="34.9" x="64" y="203.6"/><rect width="32" height="34.9" x="64" y="273.5"/><rect width="32" height="34.9" x="64" y="343.3"/><rect width="32" height="34.9" x="64" y="413.1"/><rect width="32" height="34.9" x="416" y="64"/><rect width="32" height="34.9" x="416" y="133.8"/><rect width="32" height="34.9" x="416" y="203.6"/><rect width="32" height="34.9" x="416" y="273.5"/><rect width="32" height="34.9" x="416" y="343.3"/><rect width="32" height="34.9" x="416" y="413.1"/></g></svg>