<svg xmlns="http://www.w3.org/2000/svg" xmlns:xlink="http://www.w3.org/1999/xlink" style="isolation:isolate" width="379.817" height="20.8pt" viewBox="0 0 284.863 20.8"><defs><clipPath id="_clipPath_6MusEMHQyCTplchazMR0dUSgoHu0iLRc"><rect width="284.863" height="20.8"/></clipPath></defs><g clip-path="url(#_clipPath_6MusEMHQyCTplchazMR0dUSgoHu0iLRc)"><g><g><path fill="#FFF" d="M 100.355 0.584 C 98.192 0.883 97.148 1.554 96.476 2.897 C 95.134 5.582 95.283 8.417 96.924 10.431 C 98.192 11.998 99.087 12.222 105.13 12.445 C 112.366 12.744 114.529 13.714 112.664 15.952 C 111.396 17.518 102.444 17.518 100.728 15.952 C 100.057 15.355 98.714 14.758 97.67 14.683 C 96.253 14.534 95.805 14.833 95.656 16.474 C 95.283 19.831 97.67 20.8 106.547 20.8 C 116.543 20.8 117.14 20.502 117.14 14.907 C 117.14 11.923 116.767 10.207 116.021 9.611 C 115.424 9.088 111.918 8.492 108.188 8.268 C 104.533 8.119 101.176 7.522 100.803 7.074 C 98.565 4.389 106.771 2.449 111.247 4.687 C 115.35 6.701 117.737 6.03 116.767 2.971 C 115.946 0.286 109.009 -0.758 100.355 0.584 Z"/><path fill="#FFF" d="M 124.6 0.51 C 120.87 1.256 119.975 3.419 120.348 11.401 C 120.721 20.502 121.094 20.8 132.806 20.8 C 144.592 20.8 144.965 20.502 144.965 11.401 C 144.965 3.867 144.518 1.778 142.653 1.032 C 140.862 0.286 127.733 -0.087 124.6 0.51 Z M 139.072 5.806 C 139.893 6.478 140.266 8.044 140.266 10.804 C 140.266 15.653 139.37 16.324 132.806 16.324 C 126.092 16.324 125.346 15.728 125.346 10.282 C 125.346 6.403 125.57 5.732 127.062 5.135 C 129.374 4.165 137.58 4.613 139.072 5.806 Z"/><path fill="#FFF" d="M 167.494 0.957 C 167.345 1.405 167.121 4.762 166.972 8.342 C 166.673 16.026 166.449 16.324 159.885 16.324 C 153.469 16.324 152.947 15.653 152.947 7.298 L 152.947 0.659 L 150.709 0.659 L 148.471 0.659 L 148.471 9.163 C 148.471 18.712 148.844 19.607 153.32 20.502 C 154.738 20.726 158.915 20.8 162.645 20.726 C 171.522 20.353 171.597 20.278 171.597 9.163 L 171.597 0.808 L 169.657 0.435 C 168.613 0.286 167.643 0.435 167.494 0.957 Z"/><path fill="#FFF" d="M 6.287 5.657 C 5.168 8.492 3.079 12.818 1.737 15.429 C -0.874 20.427 -0.65 21.173 3.154 20.651 C 4.87 20.427 5.765 19.085 10.315 9.312 C 11.434 6.851 12.703 4.911 13.076 4.911 C 13.822 4.911 15.537 7.895 19.193 15.952 C 21.058 19.98 21.58 20.427 23.743 20.651 C 25.011 20.8 26.13 20.577 26.13 20.204 C 26.13 19.458 18.82 3.344 17.701 1.554 C 17.328 1.032 15.388 0.659 12.777 0.659 L 8.451 0.659 L 6.287 5.657 Z"/><path fill="#FFF" d="M 28.517 2.673 L 28.741 4.762 L 37.245 4.986 C 42.02 5.06 46.272 5.582 46.794 6.03 C 47.391 6.478 47.764 8.417 47.764 10.804 C 47.764 15.653 46.869 16.324 40.379 16.324 C 34.634 16.324 33.59 15.877 33.59 13.341 C 33.59 11.849 33.143 11.177 31.949 10.804 C 29.636 10.207 29.263 10.804 28.965 15.952 L 28.741 20.427 L 39.334 20.427 C 47.018 20.427 50.225 20.129 50.897 19.458 C 51.494 18.861 51.941 15.877 52.09 11.103 C 52.463 0.659 52.463 0.659 38.737 0.659 L 28.294 0.659 L 28.517 2.673 Z"/><path fill="#FFF" d="M 55.97 10.73 L 55.97 20.8 L 58.58 20.8 L 61.191 20.8 L 61.191 10.73 L 61.191 0.659 L 58.58 0.659 L 55.97 0.659 L 55.97 10.73 Z"/><path fill="#FFF" d="M 64.175 2.524 C 64.175 4.762 65.22 5.06 74.246 5.359 L 80.96 5.508 L 80.96 8.119 L 80.96 10.73 L 73.053 10.953 L 65.071 11.177 L 64.698 15.429 C 64.548 17.742 64.474 19.905 64.698 20.204 C 64.847 20.577 65.966 20.8 67.159 20.8 C 69.024 20.8 69.323 20.502 69.546 18.339 L 69.77 15.952 L 76.633 15.579 C 85.436 15.131 86.182 14.46 86.182 7.671 C 86.182 0.883 85.734 0.659 73.724 0.659 L 64.175 0.659 L 64.175 2.524 Z"/><path fill="#FFF" d="M 174.581 1.33 C 174.581 2.524 182.339 19.681 183.085 20.278 C 183.532 20.577 185.547 20.726 187.561 20.651 L 191.291 20.427 L 195.543 10.506 L 199.795 0.659 L 197.109 0.659 L 194.349 0.659 L 191.44 7.522 C 188.083 15.579 187.412 16.623 186.218 15.653 C 185.696 15.206 183.98 11.699 182.413 7.82 C 179.504 0.883 179.355 0.659 177.042 0.659 C 175.7 0.659 174.581 0.957 174.581 1.33 Z"/><path fill="#FFF" d="M 224.561 10.73 L 224.561 20.8 L 227.247 20.8 L 229.858 20.8 L 229.783 13.863 C 229.634 4.911 229.634 4.986 230.529 5.284 C 230.977 5.433 233.439 8.865 235.975 12.968 L 240.6 20.427 L 245.001 20.651 C 247.463 20.8 249.626 20.577 249.85 20.204 C 250.074 19.756 250.223 15.206 250.074 10.058 L 249.85 0.659 L 247.612 0.659 C 245.151 0.659 245.3 0.36 245.151 9.163 C 245.076 12.445 244.778 15.206 244.33 15.28 C 243.957 15.429 241.57 12.296 239.108 8.268 L 234.558 1.032 L 229.56 0.808 L 224.561 0.584 L 224.561 10.73 Z"/><path fill="#FFF" d="M 253.879 10.73 L 253.804 20.8 L 256.34 20.8 L 258.877 20.8 L 258.877 10.73 L 258.877 0.659 L 256.489 0.659 L 254.028 0.659 L 253.879 10.73 Z"/><path fill="#FFF" d="M 261.861 0.957 C 261.861 1.181 262.159 2.151 262.607 3.195 C 263.278 5.06 263.502 5.06 271.335 5.284 L 279.391 5.508 L 279.615 7.82 C 279.839 9.909 279.615 10.207 277.452 10.655 C 276.183 10.879 272.304 11.103 268.873 11.103 L 262.607 11.103 L 262.607 15.952 L 262.607 20.8 L 264.77 20.8 C 266.709 20.8 267.008 20.502 267.232 18.339 L 267.455 15.952 L 272.528 15.728 C 277.974 15.504 279.54 16.101 279.913 18.786 C 280.063 20.054 280.659 20.427 282.375 20.427 C 284.389 20.427 284.613 20.204 284.464 18.189 C 284.091 13.042 284.165 11.252 284.613 7.298 C 285.434 0.957 284.911 0.659 272.23 0.659 C 266.56 0.659 261.861 0.808 261.861 0.957 Z"/><path fill="#FFF" d="M 202.033 13.639 C 201.884 16.548 201.884 19.383 202.033 19.905 C 202.257 20.577 204.718 20.8 212.178 20.651 L 221.951 20.427 L 221.951 18.562 C 221.951 16.697 221.876 16.697 214.491 16.324 C 207.105 15.952 207.031 15.952 207.031 14.087 C 207.031 12.222 207.18 12.222 214.118 11.849 C 220.384 11.55 221.205 11.326 221.205 10.058 C 221.205 8.79 220.459 8.641 211.731 8.492 L 202.331 8.342 L 202.033 13.639 Z"/></g><rect width="18.89" height="3.854" x="201.921" y="1.032" fill="#FFF" transform="matrix(1,0,0,1,0,0)"/></g></g></svg>